<svg xmlns="http://www.w3.org/2000/svg" viewBox="0 0 100 100" width="100" height="100">
  <!-- Background -->
  <rect width="100" height="100" fill="#0a2d0a" rx="10" ry="10" />
  
  <!-- $ symbol with C overlay -->
  <g transform="translate(50, 50) scale(0.7)">
    <!-- $ symbol -->
    <path d="M0,-40 L0,40 M-20,-20 C-20,-30 -10,-35 0,-35 C15,-35 25,-25 25,-15 C25,-5 15,0 0,5 C-15,10 -25,15 -25,25 C-25,35 -15,45 0,45 C10,45 20,40 20,30" 
          stroke="#15ff15" stroke-width="8" fill="none" stroke-linecap="round"/>
    
    <!-- C overlay -->
    <path d="M20,35 C20,45 10,50 0,50 C-20,50 -40,30 -40,0 C-40,-30 -20,-50 0,-50 C10,-50 20,-45 20,-35" 
          stroke="#15ff15" stroke-width="8" fill="none" stroke-linecap="round"/>
  </g>
</svg> 